<?xml version="1.0" encoding="UTF-8"?>
<svg id="Capa_2" data-name="Capa 2" xmlns="http://www.w3.org/2000/svg" viewBox="0 0 2567.64 403.61">
  <defs>
    <style>
      .cls-1 {
        fill: #191a6a;
      }

      .cls-2 {
        fill: #fff;
      }

      .cls-3 {
        fill: #f79e1b;
      }

      .cls-4 {
        fill: #009de2;
      }

      .cls-4, .cls-5, .cls-6 {
        fill-rule: evenodd;
      }

      .cls-7 {
        fill: #ff5f00;
      }

      .cls-5 {
        fill: #113984;
      }

      .cls-8 {
        fill: #eb001b;
      }

      .cls-6 {
        fill: #172c70;
      }
    </style>
  </defs>
  <g id="Layer_1" data-name="Layer 1">
    <g>
      <rect class="cls-2" x="869.17" width="829.3" height="403.61" rx="45.39" ry="45.39"/>
      <g>
        <path d="m1146.24,368.37v-22.23c0-8.53-5.19-14.08-13.71-14.08-4.47,0-9.26,1.49-12.6,6.26-2.59-4.08-6.26-6.26-11.86-6.26-4.22-.18-8.26,1.77-10.74,5.19v-4.47h-7.04v35.58h7.04v-20.36c0-6.26,3.7-9.26,8.89-9.26s8.15,3.34,8.15,9.26v20.38h7.04v-20.38c0-6.26,3.7-9.26,8.89-9.26s8.15,3.34,8.15,9.26v20.38h7.77Zm115.62-35.21h-12.97v-10.74h-7.02v10.74h-7.41v6.26h7.41v16.71c0,8.15,2.96,12.97,11.86,12.97,3.37-.07,6.67-.96,9.62-2.59l-2.23-6.26c-2,1.25-4.32,1.89-6.67,1.85-3.7,0-5.56-2.23-5.56-5.93v-17.04h12.97v-5.98Zm65.96-1.11c-3.9-.09-7.56,1.88-9.64,5.19v-4.47h-7.04v35.58h7.04v-19.98c0-5.93,2.96-9.64,7.78-9.64,1.63.07,3.24.32,4.81.74l2.23-6.68c-1.7-.43-3.44-.68-5.19-.74h0Zm-99.69,3.7c-3.7-2.59-8.89-3.7-14.45-3.7-8.89,0-14.45,4.08-14.45,11.12,0,5.93,4.08,9.26,11.86,10.38l3.7.37c4.08.74,6.67,2.23,6.67,4.08,0,2.59-2.96,4.47-8.53,4.47-4.25.09-8.41-1.21-11.86-3.7l-3.7,5.56c5.19,3.7,11.49,4.47,15.21,4.47,10.38,0,15.94-4.81,15.94-11.49,0-6.26-4.47-9.26-12.23-10.38l-3.7-.37c-3.34-.37-6.26-1.49-6.26-3.7,0-2.59,2.96-4.47,7.04-4.47,4.47,0,8.89,1.85,11.12,2.96l3.64-5.59Zm107.47,14.83c0,10.74,7.04,18.53,18.53,18.53,5.19,0,8.89-1.11,12.6-4.08l-3.7-5.56c-2.62,2.12-5.89,3.3-9.26,3.34-6.26,0-11.12-4.81-11.12-11.86s4.8-11.82,11.12-11.82c3.37.04,6.64,1.21,9.26,3.34l3.7-5.56c-3.7-2.96-7.41-4.08-12.6-4.08-11.12-.74-18.53,7.04-18.53,17.79h0v-.04Zm-49.66-18.53c-10.38,0-17.42,7.41-17.42,18.53s7.41,18.53,18.15,18.53c5.23.11,10.33-1.59,14.45-4.81l-3.7-5.19c-2.98,2.31-6.61,3.61-10.38,3.7-4.81,0-10-2.96-10.74-9.26h26.32v-2.96c0-11.12-6.67-18.53-16.68-18.53h0Zm-.37,6.67c5.19,0,8.89,3.34,9.26,8.89h-19.26c1.11-5.19,4.47-8.89,10-8.89h0Zm-95.98,11.86v-17.79h-7.04v4.47c-2.59-3.34-6.26-5.19-11.49-5.19-10,0-17.42,7.78-17.42,18.53s7.41,18.53,17.42,18.53c5.19,0,8.89-1.85,11.49-5.19v4.47h7.04v-17.84Zm-28.53,0c0-6.68,4.08-11.86,11.12-11.86,6.67,0,10.74,5.19,10.74,11.86,0,7.04-4.47,11.86-10.74,11.86-7.04.37-11.12-5.19-11.12-11.86h0Zm273.87-18.53c-3.9-.09-7.56,1.88-9.64,5.19v-4.47h-7.04v35.58h7.03v-19.98c0-5.93,2.96-9.64,7.78-9.64,1.63.07,3.24.32,4.81.74l2.23-6.68c-1.7-.43-3.44-.68-5.19-.74h0Zm-27.42,18.53v-17.79h-7.04v4.47c-2.59-3.34-6.26-5.19-11.49-5.19-10,0-17.42,7.78-17.42,18.53s7.41,18.53,17.42,18.53c5.19,0,8.89-1.85,11.49-5.19v4.47h7.04v-17.84Zm-28.53,0c0-6.68,4.08-11.86,11.12-11.86,6.67,0,10.74,5.19,10.74,11.86,0,7.04-4.47,11.86-10.74,11.86-7.04.37-11.12-5.19-11.12-11.86Zm100.06,0v-31.87h-7.04v18.53c-2.59-3.34-6.26-5.19-11.49-5.19-10,0-17.42,7.78-17.42,18.53s7.41,18.53,17.42,18.53c5.19,0,8.89-1.85,11.49-5.19v4.47h7.04v-17.81Zm-28.53,0c0-6.68,4.08-11.86,11.12-11.86,6.67,0,10.74,5.19,10.74,11.86,0,7.04-4.47,11.86-10.74,11.86-7.05.38-11.13-5.18-11.13-11.86h0Z"/>
        <g>
          <rect class="cls-7" x="1219.98" y="63.01" width="128.6" height="209.75"/>
          <path class="cls-8" d="m1232.96,167.88c0-40.88,18.71-79.51,50.77-104.88-57.92-45.54-141.79-35.5-187.33,22.42-45.54,57.92-35.5,141.79,22.42,187.33,48.39,38.05,116.53,38.05,164.92,0-32.06-25.36-50.76-64-50.77-104.88Z"/>
          <path class="cls-3" d="m1499.79,167.88c.05,73.61-59.57,133.32-133.18,133.37-29.91.02-58.95-10.02-82.46-28.5,57.92-45.8,67.74-129.89,21.94-187.81-6.44-8.14-13.8-15.5-21.94-21.94,57.87-45.49,141.65-35.45,187.14,22.42,18.48,23.51,28.52,52.55,28.5,82.46Z"/>
        </g>
      </g>
    </g>
    <g>
      <rect class="cls-2" x="1738.34" width="829.3" height="403.61" rx="45.39" ry="45.39"/>
      <g>
        <path class="cls-4" d="m1871.76,158.12h46.56c25,0,34.41,12.65,32.96,31.28-2.4,30.7-20.96,47.67-45.58,47.67h-12.43c-3.37,0-5.64,2.23-6.56,8.29l-5.33,35.19c-.35,2.29-1.55,3.63-3.35,3.79h-29.2c-2.75,0-3.72-2.1-3.01-6.65l17.83-112.89c.71-4.52,3.19-6.68,8.11-6.68Z"/>
        <path class="cls-5" d="m2073.9,156.03c15.71,0,30.21,8.52,28.22,29.76-2.35,25.18-15.92,39.21-37.27,39.27h-18.62c-2.68,0-3.98,2.18-4.68,6.67l-3.59,22.92c-.54,3.46-2.32,5.17-4.94,5.17h-17.34c-2.77,0-3.73-1.77-3.11-5.72l14.34-91.88c.7-4.52,2.43-6.2,5.5-6.2h41.51Zm-28.25,49.18h14.13c8.83-.33,14.7-6.45,15.29-17.48.36-6.82-4.24-11.69-11.56-11.66l-13.3.06-4.56,29.08h0Zm103.61,47.57c1.58-1.44,3.2-2.19,2.97-.41l-.56,4.26c-.29,2.22.59,3.41,2.66,3.41h15.41c2.59,0,3.86-1.05,4.5-5.06l9.49-59.59c.48-2.99-.25-4.46-2.52-4.46h-16.94c-1.53,0-2.27.86-2.67,3.19l-.63,3.67c-.33,1.91-1.2,2.25-2.02.32-2.88-6.81-10.21-9.86-20.49-9.65-23.76.49-39.79,18.53-41.5,41.65-1.33,17.89,11.5,31.94,28.39,31.93,12.26,0,17.74-3.65,23.91-9.26h0Zm-12.89-9.15c-10.23,0-17.36-8.16-15.87-18.16,1.49-10,11.05-18.16,21.27-18.16s17.36,8.16,15.87,18.16c-1.49,10-11.04,18.16-21.27,18.16h0Zm77.52-52.9h-15.56c-3.23,0-4.54,2.36-3.51,5.36l19.4,56.8-19.11,27.02c-1.59,2.25-.36,4.32,1.89,4.32h17.56c2.62,0,3.9-.67,5.22-2.56l59.66-85.58c1.84-2.64.97-5.39-2.04-5.4l-16.6-.02c-2.85,0-3.99,1.12-5.63,3.5l-24.88,36.1-11.07-36.16c-.68-2.23-2.31-3.38-5.3-3.38Z"/>
        <path class="cls-4" d="m2341.51,156.03c15.71,0,30.21,8.52,28.22,29.76-2.35,25.18-15.92,39.21-37.27,39.27h-18.62c-2.68,0-3.98,2.18-4.68,6.67l-3.59,22.92c-.54,3.46-2.32,5.17-4.94,5.17h-17.34c-2.77,0-3.73-1.77-3.11-5.72l14.34-91.88c.7-4.52,2.43-6.2,5.5-6.2h41.51Zm-28.25,49.18h14.13c8.83-.33,14.7-6.45,15.29-17.48.36-6.82-4.24-11.69-11.56-11.66l-13.3.06-4.56,29.08h0Zm103.61,47.57c1.58-1.44,3.2-2.19,2.97-.41l-.56,4.26c-.29,2.22.59,3.41,2.66,3.41h15.41c2.59,0,3.86-1.05,4.5-5.06l9.49-59.59c.48-2.99-.25-4.46-2.52-4.46h-16.94c-1.53,0-2.27.86-2.67,3.19l-.63,3.67c-.33,1.91-1.2,2.25-2.02.32-2.88-6.81-10.21-9.86-20.49-9.65-23.77.49-39.79,18.53-41.5,41.65-1.33,17.89,11.5,31.94,28.39,31.93,12.26,0,17.74-3.65,23.91-9.26h0Zm-12.89-9.15c-10.23,0-17.36-8.16-15.87-18.16,1.49-10,11.04-18.16,21.27-18.16s17.36,8.16,15.87,18.16c-1.49,10-11.04,18.16-21.27,18.16h0Zm71.06,16.51h-17.78c-1.41,0-2.39-1.11-2.18-2.46l15.64-98.98c.21-1.35,1.54-2.46,2.96-2.46h17.78c1.41,0,2.39,1.11,2.18,2.46l-15.64,98.98c-.21,1.35-1.54,2.46-2.96,2.46Z"/>
        <path class="cls-5" d="m1842.65,119.27h46.61c13.13,0,28.7.43,39.11,9.61,6.96,6.14,10.61,15.91,9.77,26.41-2.86,35.59-24.15,55.53-52.7,55.53h-22.99c-3.91,0-6.51,2.59-7.61,9.61l-6.41,40.81c-.42,2.65-1.56,4.21-3.66,4.4h-28.71c-3.19,0-4.32-2.44-3.49-7.72l20.68-130.91c.83-5.25,3.7-7.74,9.4-7.74Z"/>
        <path class="cls-6" d="m1855.51,216.32l8.14-51.52c.71-4.52,3.19-6.68,8.11-6.68h46.56c7.71,0,13.94,1.2,18.82,3.42-4.68,31.67-25.17,49.28-52,49.28h-22.99c-3.03,0-5.29,1.55-6.65,5.5Z"/>
      </g>
    </g>
    <g>
      <rect class="cls-2" width="829.3" height="403.61" rx="45.39" ry="45.39"/>
      <path class="cls-1" d="m347.76,115.22l-72.78,173.64h-47.48l-35.82-138.58c-2.18-8.53-4.06-11.66-10.67-15.25-10.8-5.87-28.63-11.36-44.31-14.78l1.06-5.04h76.44c9.74,0,18.5,6.48,20.71,17.7l18.92,100.48,46.75-118.18h47.18Zm186.05,116.94c.2-45.82-63.37-48.35-62.93-68.83.14-6.23,6.07-12.85,19.05-14.54,6.43-.84,24.18-1.49,44.28,7.77l7.89-36.82c-10.82-3.93-24.72-7.7-42.03-7.7-44.39,0-75.65,23.6-75.9,57.4-.3,25.01,22.3,38.94,39.33,47.26,17.49,8.51,23.36,13.97,23.3,21.58-.13,11.66-13.96,16.79-26.89,17-22.58.35-35.69-6.1-46.13-10.97l-8.13,38.05c10.49,4.82,29.86,9.02,49.95,9.22,47.19,0,78.05-23.3,78.2-59.41m117.25,56.7h41.54l-36.26-173.64h-38.34c-8.62,0-15.89,5.01-19.12,12.73l-67.4,160.9h47.16l9.37-25.94h57.62l5.43,25.94Zm-50.12-61.52l23.65-65.2,13.61,65.2h-37.26Zm-188.98-112.11l-37.14,173.64h-44.92l37.16-173.64h44.91Z"/>
    </g>
  </g>
</svg>